<svg width="17" height="22" viewBox="0 0 17 22" fill="none" xmlns="http://www.w3.org/2000/svg">
<path opacity="0.9" fill-rule="evenodd" clip-rule="evenodd" d="M13.2276 21.0957C15.311 21.0957 17 19.3012 17 17.0875L17 4.00829C17 1.79465 15.311 0.000131459 13.2276 0.000131277L6.27849 0.00013067L6.27849 0.00397588C3.08617 0.12151 0.123619 3.05526 0.123618 6.7509C0.123618 8.67821 0.935193 10.1921 2.16021 11.1971C3.25838 12.098 4.66115 12.5728 6.07992 12.6473L6.07992 12.6577L6.4733 12.6577L6.47711 12.6577L15.0145 12.6577L15.0145 17.0875C15.0145 18.1361 14.2145 18.9861 13.2276 18.9861L0.123551 18.9861L0.12355 21.0957L13.2276 21.0957ZM15.0145 10.5481L15.0145 4.00829C15.0145 2.95972 14.2145 2.10969 13.2276 2.10969L6.47711 2.10969L6.47711 2.10987C4.25181 2.10987 2.10908 4.20127 2.10908 6.7509C2.10908 7.98448 2.60483 8.89661 3.37365 9.52736C4.16617 10.1775 5.28053 10.5474 6.47379 10.5481L6.47711 10.5481L15.0145 10.5481Z" fill="#008299"/>
</svg>
