<svg width="60" height="90" viewBox="0 0 60 90" fill="none" xmlns="http://www.w3.org/2000/svg">
<g clip-path="url(#clip0_530_14421)">
<path d="M48.75 24.2408H11.25L15 84.1971C15 86.8526 21.7125 89.0111 30 89.0111C38.2875 89.0111 45 86.86 45 84.1971C45 84.1971 45 84.1823 45 84.1749L48.75 24.2334V24.2408Z" fill="white"/>
<path d="M47.955 24.9752L44.2575 84.1304V84.16V84.1897V84.2416C44.16 85.9403 38.76 88.2694 30.0075 88.2694C21.255 88.2694 15.75 85.8958 15.75 84.1971V83.4628H15.6975L12.0375 24.9752H47.955ZM48.75 24.2408H11.25L15 84.1971C15 86.8526 21.7125 89.0111 30 89.0111C38.2875 89.0111 45 86.86 45 84.1971C45 84.1971 45 84.1823 45 84.1749L48.75 24.2334V24.2408Z" fill="#B6D8D2"/>
<path d="M30 29.0623C40.3553 29.0623 48.75 26.9037 48.75 24.2409C48.75 21.5781 40.3553 19.4194 30 19.4194C19.6447 19.4194 11.25 21.5781 11.25 24.2409C11.25 26.9037 19.6447 29.0623 30 29.0623Z" fill="white"/>
<path d="M30 20.1686C34.9425 20.1686 39.585 20.6582 43.065 21.5557C46.47 22.431 47.9925 23.5362 47.9925 24.2409C47.9925 24.9455 46.47 26.0508 43.065 26.926C39.585 27.8236 34.9425 28.3131 30 28.3131C25.0575 28.3131 20.415 27.8236 16.935 26.926C13.53 26.0508 12.0075 24.9455 12.0075 24.2409C12.0075 23.5362 13.53 22.431 16.935 21.5557C20.415 20.6582 25.0575 20.1686 30 20.1686ZM30 19.4194C19.6425 19.4194 11.25 21.578 11.25 24.2409C11.25 26.9038 19.6425 29.0623 30 29.0623C40.3575 29.0623 48.75 26.9038 48.75 24.2409C48.75 21.578 40.3575 19.4194 30 19.4194Z" fill="#B6D8D2"/>
<path d="M35.8725 79.3831L35.685 79.3683L42.315 7.55127L42.5025 7.5661L35.8725 79.3831Z" fill="#B6D8D2"/>
<path d="M40.5395 7.38206L33.905 79.2041L37.6395 79.5415L44.274 7.71949L40.5395 7.38206Z" fill="white"/>
<path d="M40.7101 7.58846L44.0701 7.89258L37.4776 79.3462L34.1176 79.042L40.7101 7.58846ZM40.5376 7.38818L33.9076 79.2052L37.6426 79.5464L44.2726 7.72939L40.5376 7.38818Z" fill="#B6D8D2"/>
<path d="M22.5 24.2406C22.5 30.1599 17.835 34.9961 11.94 35.3448C11.715 35.3596 11.4825 35.367 11.25 35.367C5.04 35.367 0 30.3898 0 24.2406C0 18.0915 5.04 13.1143 11.25 13.1143C17.46 13.1143 22.5 18.0989 22.5 24.2406Z" fill="#E4B955"/>
<path d="M11.25 34.8105C17.1525 34.8105 21.9375 30.0781 21.9375 24.2405C21.9375 18.4028 17.1525 13.6704 11.25 13.6704C5.34746 13.6704 0.5625 18.4028 0.5625 24.2405C0.5625 30.0781 5.34746 34.8105 11.25 34.8105Z" fill="white"/>
<path d="M10.7325 14.3826L9.11251 14.7015C8.68501 14.7831 8.42251 15.2134 8.55001 15.6287L10.545 22.0524C10.755 22.7348 11.7375 22.7348 11.9475 22.0524L13.9425 15.6287C14.07 15.2134 13.8075 14.7831 13.38 14.7015L11.76 14.3826C11.4225 14.3158 11.07 14.3158 10.7325 14.3826Z" fill="#ECC681"/>
<path d="M3.7875 17.6537L2.865 19.0111C2.625 19.3671 2.745 19.8567 3.1275 20.057L9.1275 23.202C9.765 23.5358 10.4625 22.8534 10.125 22.2155L6.945 16.2814C6.7425 15.9031 6.2475 15.777 5.8875 16.0218L4.515 16.9342C4.23 17.127 3.9825 17.3718 3.7875 17.6537Z" fill="#ECC681"/>
<path d="M1.2075 24.8263L1.53 26.4285C1.6125 26.8513 2.0475 27.1109 2.4675 26.9848L8.9625 25.0118C9.6525 24.8041 9.6525 23.8324 8.9625 23.6247L2.4675 21.6516C2.0475 21.5255 1.6125 21.7851 1.53 22.2079L1.2075 23.8101C1.14 24.1439 1.14 24.4925 1.2075 24.8263Z" fill="#ECC681"/>
<path d="M4.515 31.6953L5.8875 32.6076C6.2475 32.845 6.7425 32.7263 6.945 32.348L10.125 26.4139C10.4625 25.7834 9.7725 25.0936 9.1275 25.4274L3.1275 28.5725C2.745 28.7727 2.6175 29.2623 2.865 29.6183L3.7875 30.9757C3.9825 31.2576 4.23 31.5024 4.515 31.6953Z" fill="#ECC681"/>
<path d="M11.7675 34.247L13.3875 33.9281C13.815 33.8465 14.0775 33.4163 13.95 33.0009L11.955 26.5772C11.745 25.8948 10.7625 25.8948 10.5525 26.5772L8.5575 33.0009C8.43 33.4163 8.6925 33.8465 9.12 33.9281L10.74 34.247C11.0775 34.3138 11.43 34.3138 11.7675 34.247Z" fill="#ECC681"/>
<path d="M18.7125 30.9759L19.635 29.6184C19.875 29.2624 19.755 28.7728 19.3725 28.5726L13.3725 25.4275C12.735 25.0937 12.0375 25.7761 12.375 26.414L15.555 32.3481C15.7575 32.7264 16.2525 32.8525 16.6125 32.6077L17.985 31.6954C18.27 31.5025 18.5175 31.2577 18.7125 30.9759Z" fill="#ECC681"/>
<path d="M21.2925 23.8028L20.97 22.2006C20.8875 21.7778 20.4525 21.5182 20.0325 21.6443L13.5375 23.6173C12.8475 23.825 12.8475 24.7967 13.5375 25.0044L20.0325 26.9775C20.4525 27.1036 20.8875 26.844 20.97 26.4212L21.2925 24.819C21.36 24.4852 21.36 24.1366 21.2925 23.8028Z" fill="#ECC681"/>
<path d="M17.985 16.9343L16.6125 16.0219C16.2525 15.7846 15.7575 15.9033 15.555 16.2815L12.375 22.2156C12.0375 22.8461 12.7275 23.5359 13.3725 23.2022L19.3725 20.0571C19.755 19.8568 19.8825 19.3673 19.635 19.0112L18.7125 17.6538C18.5175 17.3719 18.27 17.1272 17.985 16.9343Z" fill="#ECC681"/>
<path d="M11.25 24.2256H12.0075L12.6825 35.2704L11.94 35.3445L11.25 24.2256Z" fill="#B6D8D2"/>
<path d="M29.985 29.0769C19.6575 29.0769 11.25 26.9035 11.25 24.2258H12.0075C12.0075 25.8947 19.0125 28.3277 29.985 28.3277C40.9575 28.3277 47.73 26.184 47.9925 24.1738L48.7425 24.2703C48.375 27.0073 40.3125 29.0694 29.985 29.0694V29.0769Z" fill="#B6D8D2"/>
<path d="M45 34.3062H15L18.75 81.43H18.7725C19.0125 83.0842 23.94 84.4045 30 84.4045C36.06 84.4045 40.9875 83.0842 41.2275 81.43H41.25L45 34.3062Z" fill="#ECC681"/>
<path d="M44.49 34.766L40.8075 81.0221L40.7625 81.3559C40.6125 82.4092 36.69 83.9298 30 83.9298C23.31 83.9298 19.3875 82.4092 19.2375 81.3559L19.2 81.1779L15.51 34.766H44.4975M45 34.3062H15L18.75 81.43H18.7725C19.0125 83.0842 23.94 84.4045 30 84.4045C36.06 84.4045 40.9875 83.0842 41.2275 81.43H41.25L45 34.3062Z" fill="#E4B955"/>
<path d="M30 39.1277C38.2843 39.1277 45 36.9691 45 34.3063C45 31.6435 38.2843 29.4849 30 29.4849C21.7157 29.4849 15 31.6435 15 34.3063C15 36.9691 21.7157 39.1277 30 39.1277Z" fill="#ECC681"/>
<path d="M30 29.9448C36.87 29.9448 44.5275 31.7324 44.5275 34.2989C44.5275 36.8654 36.87 38.653 30 38.653C23.13 38.653 15.4725 36.8654 15.4725 34.2989C15.4725 31.7324 23.13 29.9448 30 29.9448ZM30 29.4849C21.7125 29.4849 15 31.6434 15 34.3063C15 36.9692 21.7125 39.1277 30 39.1277C38.2875 39.1277 45 36.9692 45 34.3063C45 31.6434 38.2875 29.4849 30 29.4849Z" fill="#E4B955"/>
<path d="M44.1839 7.72811C44.2095 7.45069 43.4344 7.15389 42.4527 7.06519C41.4709 6.97648 40.6543 7.12946 40.6287 7.40688C40.6031 7.68429 41.3781 7.98109 42.3599 8.06979C43.3416 8.1585 44.1583 8.00552 44.1839 7.72811Z" fill="white"/>
<path d="M42.9 8.1887C42.72 8.1887 42.54 8.18128 42.345 8.16645C41.415 8.08486 40.5 7.79557 40.53 7.40244C40.545 7.22441 40.7625 7.08348 41.16 7.00931C41.5125 6.94255 41.97 6.92771 42.4575 6.97222C42.9375 7.01672 43.3875 7.11315 43.725 7.23925C44.1 7.38018 44.2875 7.55079 44.2725 7.73623C44.2575 7.91425 44.04 8.05518 43.6425 8.12936C43.425 8.16645 43.1775 8.1887 42.9 8.1887ZM41.91 7.12799C41.6475 7.12799 41.4075 7.15024 41.205 7.18733C40.8825 7.24667 40.7325 7.3431 40.725 7.41727C40.71 7.58788 41.34 7.892 42.375 7.98101C42.84 8.02551 43.2825 8.01068 43.62 7.95134C43.9425 7.892 44.0925 7.79557 44.1 7.72139C44.1 7.65463 43.9725 7.52854 43.6725 7.40985C43.35 7.28376 42.9225 7.19474 42.4575 7.15766C42.27 7.14282 42.09 7.1354 41.925 7.1354L41.91 7.12799Z" fill="#B6D8D2"/>
<g style="mix-blend-mode:soft-light">
<path d="M42.0825 31.4582C41.07 31.0132 39.84 30.6275 38.4225 30.3159L33.9075 79.2052H33.9975C33.975 79.4945 34.7475 79.7912 35.73 79.8802C36.7125 79.9692 37.53 79.8134 37.5525 79.539H37.6425L42.0825 31.4582Z" fill="white"/>
<path d="M36.27 79.9987C36.09 79.9987 35.9025 79.9913 35.7225 79.9765C34.8675 79.9023 34.02 79.6501 33.915 79.3089H33.81L33.8175 79.205L38.34 30.2119L38.445 30.2342C39.8475 30.5383 41.085 30.924 42.12 31.3839L42.18 31.4136V31.4803L37.725 79.6575H37.6125C37.485 79.8949 36.915 80.0136 36.27 80.0136V79.9987ZM34.0125 79.1235H34.1025L34.095 79.2199C34.08 79.3905 34.71 79.6946 35.745 79.7836C36.7725 79.88 37.455 79.6872 37.47 79.524V79.435L37.5675 79.4424L41.9925 31.51C41.0025 31.0798 39.8325 30.7163 38.5125 30.427L34.02 79.1235H34.0125Z" fill="#B6D8D2"/>
</g>
</g>
<defs>
<clipPath id="clip0_530_14421">
<rect width="60" height="89.011" fill="white"/>
</clipPath>
</defs>
</svg>
