<svg width="60" height="90" viewBox="0 0 60 90" fill="none" xmlns="http://www.w3.org/2000/svg">
<g clip-path="url(#clip0_530_14329)">
<path d="M48.75 25.2354H11.25L15 85.1868C15 87.842 21.7125 90.0004 30 90.0004C38.2875 90.0004 45 87.8494 45 85.1868C45 85.1868 45 85.1719 45 85.1645L48.75 25.228V25.2354Z" fill="white"/>
<path d="M47.955 25.9697L44.2575 85.12V85.1497V85.1793V85.2313C44.16 86.9297 38.76 89.2587 30.0075 89.2587C21.255 89.2587 15.75 86.8852 15.75 85.1868V84.4525H15.6975L12.0375 25.9697H47.955ZM48.75 25.2354H11.25L15 85.1868C15 87.842 21.7125 90.0004 30 90.0004C38.2875 90.0004 45 87.8494 45 85.1868C45 85.1868 45 85.1719 45 85.1645L48.75 25.228V25.2354Z" fill="#B6D8D2"/>
<path d="M30 30.0561C40.3553 30.0561 48.75 27.8977 48.75 25.2351C48.75 22.5725 40.3553 20.4141 30 20.4141C19.6447 20.4141 11.25 22.5725 11.25 25.2351C11.25 27.8977 19.6447 30.0561 30 30.0561Z" fill="white"/>
<path d="M30 21.1632C34.9425 21.1632 39.585 21.6527 43.065 22.5501C46.47 23.4253 47.9925 24.5305 47.9925 25.2351C47.9925 25.9397 46.47 27.0448 43.065 27.92C39.585 28.8175 34.9425 29.307 30 29.307C25.0575 29.307 20.415 28.8175 16.935 27.92C13.53 27.0448 12.0075 25.9397 12.0075 25.2351C12.0075 24.5305 13.53 23.4253 16.935 22.5501C20.415 21.6527 25.0575 21.1632 30 21.1632ZM30 20.4141C19.6425 20.4141 11.25 22.5724 11.25 25.2351C11.25 27.8978 19.6425 30.0561 30 30.0561C40.3575 30.0561 48.75 27.8978 48.75 25.2351C48.75 22.5724 40.3575 20.4141 30 20.4141Z" fill="#B6D8D2"/>
<path d="M35.8725 80.3728L35.685 80.358L42.315 8.53955L42.5025 8.5618L35.8725 80.3728Z" fill="#B6D8D2"/>
<path d="M40.547 8.37827L33.9125 80.1943L37.6469 80.5317L44.2814 8.71567L40.547 8.37827Z" fill="#CB6564"/>
<path d="M40.71 8.58414L44.07 8.88824L37.4775 80.3359L34.1175 80.0318L40.71 8.58414ZM40.5375 8.38388L33.9075 80.1949L37.6425 80.5361L44.2725 8.71765L40.5375 8.37646V8.38388Z" fill="#B6D8D2"/>
<path d="M29.985 30.0711C19.6575 30.0711 11.25 27.8979 11.25 25.2204H12.0075C12.0075 26.8892 19.0125 29.322 29.985 29.322C40.9575 29.322 47.73 27.1785 47.9925 25.1685L48.7425 25.2649C48.375 28.0017 40.3125 30.0637 29.985 30.0637V30.0711Z" fill="#B6D8D2"/>
<path d="M43.185 58.2407L16.8225 58.2036L18.75 82.4126H18.7725C19.0125 84.0666 23.94 85.3868 30 85.3868C36.06 85.3868 40.9875 84.0666 41.2275 82.4126H41.25L43.185 58.2407Z" fill="#534242"/>
<path d="M42.69 58.2407L40.8075 82.0937L40.7625 82.4274C40.6125 83.4806 36.69 85.0011 30 85.0011C23.31 85.0011 19.3875 83.4806 19.2375 82.4274L19.2 82.2494L17.2725 58.2036L42.69 58.2407ZM43.185 58.2407L16.8225 58.2036L18.75 82.4942H18.7725C19.0125 84.1482 23.94 85.4684 30 85.4684C36.06 85.4684 40.9875 84.1482 41.2275 82.4942H41.25L43.185 58.2407Z" fill="#B1D2CC"/>
<path d="M30.0075 62.4682C37.2852 62.4682 43.185 60.5721 43.185 58.2331C43.185 55.8942 37.2852 53.998 30.0075 53.998C22.7298 53.998 16.83 55.8942 16.83 58.2331C16.83 60.5721 22.7298 62.4682 30.0075 62.4682Z" fill="#534242"/>
<path d="M30.0075 54.406C36.045 54.406 42.7725 55.9784 42.7725 58.2331C42.7725 60.4879 36.045 62.0603 30.0075 62.0603C23.97 62.0603 17.2425 60.4879 17.2425 58.2331C17.2425 55.9784 23.97 54.406 30.0075 54.406ZM30.0075 53.998C22.725 53.998 16.83 55.8968 16.83 58.2331C16.83 60.5695 22.7325 62.4682 30.0075 62.4682C37.2825 62.4682 43.185 60.5695 43.185 58.2331C43.185 55.8968 37.2825 53.998 30.0075 53.998Z" fill="#B1D2CC"/>
<path d="M44.1839 8.7247C44.2095 8.44731 43.4344 8.15054 42.4527 8.06184C41.4709 7.97314 40.6543 8.12611 40.6287 8.4035C40.603 8.68089 41.3781 8.97767 42.3599 9.06636C43.3416 9.15506 44.1582 9.00209 44.1839 8.7247Z" fill="#CB6564"/>
<path d="M42.9 9.18469C42.72 9.18469 42.54 9.17727 42.345 9.16244C41.415 9.08085 40.5 8.79159 40.53 8.39849C40.545 8.22049 40.7625 8.07956 41.16 8.00539C41.5125 7.93864 41.97 7.92381 42.4575 7.96831C42.9375 8.01281 43.3875 8.10923 43.725 8.23532C44.1 8.37624 44.2875 8.54683 44.2725 8.73226C44.2575 8.91026 44.04 9.05119 43.6425 9.12536C43.425 9.16244 43.1775 9.18469 42.9 9.18469ZM41.91 8.12407C41.6475 8.12407 41.4075 8.14632 41.205 8.1834C40.8825 8.24274 40.7325 8.33916 40.725 8.41333C40.71 8.58392 41.34 8.88801 42.375 8.97702C42.84 9.02152 43.2825 9.00668 43.62 8.94735C43.9425 8.88801 44.0925 8.79159 44.1 8.71742C44.1 8.65067 43.9725 8.52458 43.6725 8.40591C43.35 8.27982 42.9225 8.19082 42.4575 8.15373C42.27 8.1389 42.09 8.13148 41.925 8.13148L41.91 8.12407Z" fill="#B6D8D2"/>
<g style="mix-blend-mode:soft-light">
<path d="M39.9825 55.504C38.97 55.059 37.74 54.6733 36.3225 54.3618L33.9075 80.1951H33.9975C33.975 80.4844 34.7475 80.781 35.73 80.87C36.7125 80.959 37.53 80.8033 37.5525 80.5289H37.6425L39.9825 55.5114V55.504Z" fill="white"/>
<path d="M36.27 80.9884C36.09 80.9884 35.9025 80.981 35.7225 80.9662C34.8675 80.892 34.02 80.6398 33.915 80.2986H33.81L33.8175 80.1948L36.2025 54.3467L36.3075 54.3689C37.71 54.673 38.9475 55.0587 39.9825 55.5186L40.0425 55.5482V55.615L37.725 80.6472H37.6125C37.485 80.8846 36.915 81.0032 36.27 81.0032V80.9884ZM34.0125 80.1132H34.1025L34.095 80.2096C34.08 80.3802 34.71 80.6843 35.745 80.7733C36.7725 80.8697 37.455 80.6769 37.47 80.5137V80.4247L37.5675 80.4321L39.84 55.8449C38.85 55.4147 37.68 55.0513 36.36 54.762L34.02 80.1132H34.0125Z" fill="#B6D8D2"/>
</g>
<path d="M28.7625 73.4525C28.924 73.4525 29.055 73.323 29.055 73.1633C29.055 73.0035 28.924 72.874 28.7625 72.874C28.601 72.874 28.47 73.0035 28.47 73.1633C28.47 73.323 28.601 73.4525 28.7625 73.4525Z" fill="white"/>
<path d="M27.24 65.279C27.5175 65.279 27.7425 65.0565 27.7425 64.7821C27.7425 64.5076 27.5175 64.2852 27.24 64.2852C26.9625 64.2852 26.7375 64.5076 26.7375 64.7821C26.7375 65.0565 26.9625 65.279 27.24 65.279Z" fill="white"/>
<path d="M23.1225 77.5021C23.4414 77.5021 23.7 77.2464 23.7 76.931C23.7 76.6156 23.4414 76.3599 23.1225 76.3599C22.8036 76.3599 22.545 76.6156 22.545 76.931C22.545 77.2464 22.8036 77.5021 23.1225 77.5021Z" fill="white"/>
<path d="M27.72 73.2225C27.836 73.2225 27.93 73.1295 27.93 73.0148C27.93 72.9001 27.836 72.8071 27.72 72.8071C27.604 72.8071 27.51 72.9001 27.51 73.0148C27.51 73.1295 27.604 73.2225 27.72 73.2225Z" fill="white"/>
<path d="M22.3725 66.9551C22.6666 66.9551 22.905 66.7193 22.905 66.4285C22.905 66.1376 22.6666 65.9019 22.3725 65.9019C22.0784 65.9019 21.84 66.1376 21.84 66.4285C21.84 66.7193 22.0784 66.9551 22.3725 66.9551Z" fill="white"/>
<path d="M27.5625 79.3341C27.8152 79.3341 28.02 79.1315 28.02 78.8816C28.02 78.6318 27.8152 78.4292 27.5625 78.4292C27.3098 78.4292 27.105 78.6318 27.105 78.8816C27.105 79.1315 27.3098 79.3341 27.5625 79.3341Z" fill="white"/>
<path d="M24.36 84.1256C24.4718 84.1256 24.5625 84.036 24.5625 83.9254C24.5625 83.8148 24.4718 83.7251 24.36 83.7251C24.2482 83.7251 24.1575 83.8148 24.1575 83.9254C24.1575 84.036 24.2482 84.1256 24.36 84.1256Z" fill="white"/>
<path d="M26.9175 77.339C27.0086 77.339 27.0825 77.266 27.0825 77.1759C27.0825 77.0858 27.0086 77.0127 26.9175 77.0127C26.8264 77.0127 26.7525 77.0858 26.7525 77.1759C26.7525 77.266 26.8264 77.339 26.9175 77.339Z" fill="white"/>
<path d="M40.6575 77.2869C40.9682 77.2869 41.22 77.0378 41.22 76.7306C41.22 76.4234 40.9682 76.1743 40.6575 76.1743C40.3468 76.1743 40.095 76.4234 40.095 76.7306C40.095 77.0378 40.3468 77.2869 40.6575 77.2869Z" fill="white"/>
</g>
<defs>
<clipPath id="clip0_530_14329">
<rect width="60" height="89.011" fill="white" transform="translate(0 0.98877)"/>
</clipPath>
</defs>
</svg>
