<svg width="19" height="22" viewBox="0 0 19 22" fill="none" xmlns="http://www.w3.org/2000/svg">
<path fill-rule="evenodd" clip-rule="evenodd" d="M4.11073 0.000488281C1.89708 0.000488281 0.10257 1.795 0.10257 4.00865V17.0879C0.10257 19.3015 1.89708 21.0961 4.11073 21.0961L11.2832 21.0961L11.4942 21.0961V21.0924C14.886 20.9749 18.0338 18.0411 18.0338 14.3455C18.0338 12.4182 17.1715 10.9043 15.8699 9.89928C14.7031 8.99832 13.2126 8.52355 11.7051 8.44912V8.43872H11.2832H2.21213V4.00865C2.21213 2.96008 3.06216 2.11005 4.11073 2.11005H18.0338V0.000488281H4.11073ZM2.21213 10.5483V17.0879C2.21213 18.1365 3.06216 18.9865 4.11073 18.9865H11.2832C13.6476 18.9865 15.9242 16.8951 15.9242 14.3455C15.9242 13.1119 15.3975 12.1998 14.5806 11.569C13.7378 10.9182 12.5524 10.5483 11.2832 10.5483H2.21213Z" fill="#008299"/>
</svg>
