<svg width="40" height="40" viewBox="0 0 40 40" fill="none" xmlns="http://www.w3.org/2000/svg">
<rect x="1.5" y="1.5" width="37" height="37" rx="8.5" fill="#BCE8DE" stroke="#008299" stroke-width="3"/>
<path d="M10.1315 13.8632L14.6337 28.8542C14.8123 29.4449 15.1688 29.9662 15.6545 30.347C16.1402 30.7277 16.7315 30.9494 17.3478 30.9819C17.9641 31.0143 18.5754 30.8558 19.0984 30.5281C19.6213 30.2004 20.0305 29.7194 20.2701 29.1506L22.534 23.7218C22.5912 23.5932 22.6734 23.4772 22.7759 23.3807C22.8784 23.2842 22.9991 23.209 23.1309 23.1597L28.6857 21.2252C29.1575 21.0601 29.5807 20.7797 29.9166 20.4095C30.2525 20.0393 30.4906 19.5909 30.6092 19.1053C30.7278 18.6196 30.7231 18.1121 30.5957 17.6287C30.4682 17.1453 30.2219 16.7014 29.8793 16.3374C29.5549 15.9997 29.1591 15.7389 28.7208 15.574L14.0267 10.1812C13.5043 9.99092 12.9394 9.94953 12.395 10.0616C11.8505 10.1737 11.3479 10.4349 10.9432 10.816C10.5385 11.1971 10.2477 11.6832 10.1031 12.22C9.95858 12.7567 9.96603 13.3231 10.1246 13.8559L10.1315 13.8632ZM13.3406 12.0636L28.0347 17.4564C28.225 17.5297 28.3883 17.6594 28.5028 17.8282C28.6173 17.997 28.6774 18.1967 28.6751 18.4006C28.6729 18.6046 28.6083 18.8029 28.4901 18.9691C28.3719 19.1353 28.2057 19.2614 28.0139 19.3304L22.466 21.2721C22.3926 21.2987 22.3208 21.3297 22.251 21.3647L17.5273 16.3488C17.3455 16.1557 17.0944 16.0428 16.8293 16.0349C16.5642 16.0269 16.3068 16.1246 16.1137 16.3064C15.9207 16.4882 15.8077 16.7393 15.7998 17.0044C15.7918 17.2695 15.8895 17.5269 16.0713 17.72L20.795 22.7359C20.7559 22.8034 20.7207 22.8732 20.6897 22.9449L18.4189 28.3664C18.3385 28.5538 18.2027 28.7121 18.0297 28.8202C17.8567 28.9282 17.6549 28.9807 17.4512 28.9708C17.2475 28.9608 17.0517 28.8888 16.8901 28.7644C16.7285 28.6401 16.6088 28.4692 16.547 28.2749L12.0448 13.2839C11.9935 13.1071 11.9921 12.9196 12.0406 12.7421C12.0891 12.5646 12.1857 12.4038 12.3197 12.2777C12.4537 12.1515 12.6199 12.0647 12.8 12.027C12.9801 11.9892 13.1672 12.0018 13.3406 12.0636Z" fill="#008299"/>
</svg>
