<svg width="17" height="22" viewBox="0 0 17 22" fill="none" xmlns="http://www.w3.org/2000/svg">
<path fill-rule="evenodd" clip-rule="evenodd" d="M2.0198e-05 0.0957031L11.9 0.0957041C14.7797 0.0957031 17 2.77673 17 5.66692C17 8.69477 14.6535 10.81 11.9051 10.81V8.66713C13.6633 8.66713 14.96 7.37294 14.96 5.66692C14.96 3.82324 13.527 2.23856 11.9 2.23856L2.0198e-05 2.23856V0.0957031ZM11.9986 21.0957L3.49792e-07 21.0957L0 18.9528L11.9986 18.9528C13.5941 18.9528 14.9994 17.3682 14.9994 15.5245C14.9994 14.7643 14.7576 14.2361 14.2754 13.6867L15.7332 12.2191C16.4906 13.0823 17 14.114 17 15.5245C17 18.413 14.8251 21.0926 12.0035 21.0957H11.9986ZM11.9 8.66713H8.07501V10.81H11.9V8.66713Z" fill="#008299"/>
</svg>
