<svg width="60" height="90" viewBox="0 0 60 90" fill="none" xmlns="http://www.w3.org/2000/svg">
<g clip-path="url(#clip0_530_14295)">
<path d="M48.75 24.2467H11.25L15 84.198C15 86.8533 21.7125 89.0116 30 89.0116C38.2875 89.0116 45 86.8607 45 84.198C45 84.198 45 84.1832 45 84.1757L48.75 24.2393V24.2467Z" fill="white"/>
<path d="M47.955 24.981L44.2575 84.1312V84.1609V84.1906V84.2425C44.16 85.941 38.76 88.2699 30.0075 88.2699C21.255 88.2699 15.75 85.8965 15.75 84.198V83.4637H15.6975L12.0375 24.981H47.955ZM48.75 24.2467H11.25L15 84.198C15 86.8533 21.7125 89.0116 30 89.0116C38.2875 89.0116 45 86.8607 45 84.198C45 84.198 45 84.1832 45 84.1757L48.75 24.2393V24.2467Z" fill="#B6D8D2"/>
<path d="M30 29.0673C40.3553 29.0673 48.75 26.9089 48.75 24.2463C48.75 21.5837 40.3553 19.4253 30 19.4253C19.6447 19.4253 11.25 21.5837 11.25 24.2463C11.25 26.9089 19.6447 29.0673 30 29.0673Z" fill="white"/>
<path d="M30 20.1744C34.9425 20.1744 39.585 20.6639 43.065 21.5614C46.47 22.4366 47.9925 23.5417 47.9925 24.2463C47.9925 24.9509 46.47 26.0561 43.065 26.9313C39.585 27.8287 34.9425 28.3182 30 28.3182C25.0575 28.3182 20.415 27.8287 16.935 26.9313C13.53 26.0561 12.0075 24.9509 12.0075 24.2463C12.0075 23.5417 13.53 22.4366 16.935 21.5614C20.415 20.6639 25.0575 20.1744 30 20.1744ZM30 19.4253C19.6425 19.4253 11.25 21.5836 11.25 24.2463C11.25 26.909 19.6425 29.0673 30 29.0673C40.3575 29.0673 48.75 26.909 48.75 24.2463C48.75 21.5836 40.3575 19.4253 30 19.4253Z" fill="#B6D8D2"/>
<path d="M35.8725 79.3841L35.685 79.3692L42.315 7.55078L42.5025 7.57303L35.8725 79.3841Z" fill="#B6D8D2"/>
<path d="M40.547 7.3895L33.9125 79.2056L37.6469 79.543L44.2814 7.7269L40.547 7.3895Z" fill="white"/>
<path d="M40.71 7.59537L44.07 7.89947L37.4775 79.3471L34.1175 79.043L40.71 7.59537ZM40.5375 7.39511L33.9075 79.2062L37.6425 79.5473L44.2725 7.72888L40.5375 7.3877V7.39511Z" fill="#B6D8D2"/>
<path d="M29.985 29.0823C19.6575 29.0823 11.25 26.9091 11.25 24.2316H12.0075C12.0075 25.9004 19.0125 28.3332 29.985 28.3332C40.9575 28.3332 47.73 26.1897 47.9925 24.1797L48.7425 24.2761C48.375 27.013 40.3125 29.0749 29.985 29.0749V29.0823Z" fill="#B6D8D2"/>
<path d="M42.5925 64.6982L17.415 64.6611L18.75 81.4235H18.7725C19.0125 83.0775 23.94 84.3977 30 84.3977C36.06 84.3977 40.9875 83.0775 41.2275 81.4235H41.25L42.5925 64.6982Z" fill="#CFE6F2"/>
<path d="M42.18 64.6982L40.8075 81.1045L40.7625 81.4383C40.6125 82.4915 36.69 84.012 30 84.012C23.31 84.012 19.3875 82.4915 19.2375 81.4383L19.2 81.2603L17.8725 64.6611L42.18 64.6982ZM42.5925 64.6982L17.415 64.6611L18.75 81.5051H18.7725C19.0125 83.159 23.94 84.4793 30 84.4793C36.06 84.4793 40.9875 83.159 41.2275 81.5051H41.25L42.5925 64.6982Z" fill="#B1D2CC"/>
<path d="M30.03 68.6961C36.9598 68.6961 42.5775 66.8897 42.5775 64.6613C42.5775 62.4329 36.9598 60.6265 30.03 60.6265C23.1002 60.6265 17.4825 62.4329 17.4825 64.6613C17.4825 66.8897 23.1002 68.6961 30.03 68.6961Z" fill="#CFE6F2"/>
<path d="M30.03 61.0122C35.7825 61.0122 42.1875 62.5104 42.1875 64.6539C42.1875 66.7974 35.7825 68.2956 30.03 68.2956C24.2775 68.2956 17.8725 66.7974 17.8725 64.6539C17.8725 62.5104 24.2775 61.0122 30.03 61.0122ZM30.03 60.6265C23.1 60.6265 17.4825 62.4288 17.4825 64.6613C17.4825 66.8938 23.1 68.6961 30.03 68.6961C36.96 68.6961 42.5775 66.8938 42.5775 64.6613C42.5775 62.4288 36.96 60.6265 30.03 60.6265Z" fill="#B1D2CC"/>
<path d="M44.1839 7.73593C44.2095 7.45854 43.4344 7.16177 42.4527 7.07307C41.4709 6.98437 40.6543 7.13734 40.6287 7.41473C40.603 7.69212 41.3781 7.9889 42.3599 8.07759C43.3416 8.16629 44.1582 8.01333 44.1839 7.73593Z" fill="white"/>
<path d="M42.9 8.19592C42.72 8.19592 42.54 8.18851 42.345 8.17367C41.415 8.09208 40.5 7.80282 40.53 7.40972C40.545 7.23172 40.7625 7.09079 41.16 7.01662C41.5125 6.94987 41.97 6.93504 42.4575 6.97954C42.9375 7.02404 43.3875 7.12046 43.725 7.24655C44.1 7.38747 44.2875 7.55806 44.2725 7.74349C44.2575 7.92149 44.04 8.06242 43.6425 8.13659C43.425 8.17367 43.1775 8.19592 42.9 8.19592ZM41.91 7.1353C41.6475 7.1353 41.4075 7.15755 41.205 7.19463C40.8825 7.25397 40.7325 7.35039 40.725 7.42456C40.71 7.59515 41.34 7.89924 42.375 7.98825C42.84 8.03275 43.2825 8.01791 43.62 7.95858C43.9425 7.89924 44.0925 7.80282 44.1 7.72865C44.1 7.6619 43.9725 7.53581 43.6725 7.41714C43.35 7.29105 42.9225 7.20205 42.4575 7.16496C42.27 7.15013 42.09 7.14271 41.925 7.14271L41.91 7.1353Z" fill="#B6D8D2"/>
<g style="mix-blend-mode:soft-light">
<path d="M42.0825 31.463C41.07 31.018 39.84 30.6323 38.4225 30.3208L33.9075 79.206H33.9975C33.975 79.4953 34.7475 79.7919 35.73 79.881C36.7125 79.97 37.53 79.8142 37.5525 79.5398H37.6425L42.0825 31.463Z" fill="white"/>
<path d="M36.27 79.9995C36.09 79.9995 35.9025 79.992 35.7225 79.9772C34.8675 79.903 34.02 79.6509 33.915 79.3097H33.81L33.8175 79.2058L38.34 30.2168L38.445 30.239C39.8475 30.5431 41.085 30.9288 42.12 31.3887L42.18 31.4183V31.4851L37.725 79.6583H37.6125C37.485 79.8956 36.915 80.0143 36.27 80.0143V79.9995ZM34.0125 79.1243H34.1025L34.095 79.2207C34.08 79.3913 34.71 79.6954 35.745 79.7844C36.7725 79.8808 37.455 79.6879 37.47 79.5248V79.4358L37.5675 79.4432L41.9925 31.5148C41.0025 31.0846 39.8325 30.7211 38.5125 30.4319L34.02 79.1243H34.0125Z" fill="#B6D8D2"/>
</g>
</g>
<defs>
<clipPath id="clip0_530_14295">
<rect width="60" height="89.011" fill="white"/>
</clipPath>
</defs>
</svg>
