<svg width="17" height="22" viewBox="0 0 17 22" fill="none" xmlns="http://www.w3.org/2000/svg">
<path fill-rule="evenodd" clip-rule="evenodd" d="M2.97056 3.27717C2.44212 3.92831 2.1519 4.84689 2.1519 5.82298H0C0 4.46573 0.398391 3.05094 1.2902 1.95207C2.20594 0.823702 3.5919 0.0956617 5.37977 0.0957031C7.18849 0.0957451 7.91221 0.0957352 8.91239 0.0957215C9.53054 0.095713 10.2543 0.0957031 11.4051 0.0957031C13.3629 0.0957031 14.7927 0.706606 15.7307 1.66684C16.6495 2.60738 17 3.78551 17 4.76237C17 6.80425 15.7983 8.39735 14.3078 9.66783C12.8199 10.9361 10.8647 12.0343 9.02943 13.0569C8.9809 13.0839 8.93246 13.1109 8.8841 13.1378C7.05346 14.1576 5.35025 15.1063 4.08122 16.1397C2.9569 17.0553 2.3405 17.904 2.18907 18.7628C2.35539 18.8044 2.57548 18.8438 2.84624 18.8761C3.65927 18.9733 4.61751 18.9745 5.16456 18.9745H12.2658C14.0027 18.9745 14.3925 18.5938 14.5436 18.3449C14.6551 18.1613 14.7462 17.8728 14.7965 17.3861C14.847 16.898 14.8481 16.318 14.8481 15.5806H17V15.6173C17 16.3098 17 16.9943 16.9373 17.6012C16.8733 18.2202 16.7358 18.8649 16.39 19.4344C15.6265 20.6916 14.1872 21.0957 12.2658 21.0957H5.14819C4.61351 21.0957 3.53977 21.0957 2.5873 20.9819C2.1168 20.9257 1.59328 20.8331 1.16003 20.6604C0.830207 20.5289 0 20.1249 0 19.1866C0 17.2228 1.23549 15.7056 2.71071 14.5043C4.13019 13.3484 5.98169 12.3176 7.74069 11.3383C7.81751 11.2955 7.89415 11.2528 7.97057 11.2102C9.84731 10.1646 11.6042 9.16811 12.9003 8.06331C14.1938 6.96069 14.8481 5.90228 14.8481 4.76237C14.8481 4.25439 14.6606 3.62948 14.1807 3.1382C13.72 2.66662 12.8903 2.21692 11.4051 2.21692C10.2544 2.21692 9.53061 2.21693 8.91245 2.21693C7.91224 2.21695 7.18846 2.21696 5.37972 2.21692C4.24101 2.21689 3.47507 2.65551 2.97056 3.27717ZM1.88201 18.6534C1.88335 18.6531 1.8947 18.6585 1.91204 18.6703C1.88935 18.6596 1.88068 18.6537 1.88201 18.6534Z" fill="#008299"/>
</svg>
