<svg width="63" height="22" viewBox="0 0 63 22" fill="none" xmlns="http://www.w3.org/2000/svg">
<path fill-rule="evenodd" clip-rule="evenodd" d="M2 20V0H3H4H8C11.3137 0 14 2.68629 14 6C14 9.31371 11.3137 12 8 12V10C10.2091 10 12 8.20914 12 6C12 3.79086 10.2091 2 8 2L4 2V20H2Z" fill="#008299"/>
<path fill-rule="evenodd" clip-rule="evenodd" d="M16.9177 9.00014L18.0097 5.99995L16.1303 5.31592L11 19.4112L12.8794 20.0952L16.1898 11.0001H21.8794V9.00014H16.9177Z" fill="#008299"/>
<path fill-rule="evenodd" clip-rule="evenodd" d="M39 3C39 2.64441 39.4518 2 40.5 2C41.5482 2 42 2.64441 42 3H44C44 1.14645 42.2132 0 40.5 0C38.7868 0 37 1.14645 37 3V8H35V10H37V20H39V10H41V8H39V3ZM39 8H37V10H39V8Z" fill="#008299"/>
<path fill-rule="evenodd" clip-rule="evenodd" d="M45 10L45 20L43 20L43 10L45 10Z" fill="#008299"/>
<path d="M43 6H45V8H43V6Z" fill="#008299"/>
<path fill-rule="evenodd" clip-rule="evenodd" d="M49 -8.74228e-08L49 20L47 20L47 0L49 -8.74228e-08Z" fill="#008299"/>
<path fill-rule="evenodd" clip-rule="evenodd" d="M57 8C54.7909 8 53 9.79086 53 12H51C51 8.68629 53.6863 6 57 6C60.3137 6 63 8.68629 63 12V14H53C53 16.2091 54.7909 18 57 18C58.6767 18 60.2984 17.1671 61.1056 15.5528L62.8944 16.4472C61.7016 18.8329 59.3233 20 57 20C53.6863 20 51 17.3137 51 14H53L53 12H61C61 9.79086 59.2091 8 57 8Z" fill="#008299"/>
<path fill-rule="evenodd" clip-rule="evenodd" d="M29 7H27C25.8954 7 25 7.89543 25 9V16C25 17.1046 25.8954 18 27 18H29C30.1046 18 31 17.1046 31 16V9C31 7.89543 30.1046 7 29 7ZM27 5C24.7909 5 23 6.79086 23 9V16C23 18.2091 24.7909 20 27 20H29C31.2091 20 33 18.2091 33 16V9C33 6.79086 31.2091 5 29 5H27Z" fill="#008299"/>
<line y1="21.5" x2="63" y2="21.5" stroke="#008299"/>
</svg>
