<svg width="21" height="22" viewBox="0 0 21 22" fill="none" xmlns="http://www.w3.org/2000/svg">
<path fill-rule="evenodd" clip-rule="evenodd" d="M9.50729 1.91827C7.91855 1.91827 6.63063 3.2062 6.63063 4.79494C6.63063 6.37668 7.90723 7.66025 9.48632 7.67153H11.446C13.0251 7.66025 14.3017 6.37668 14.3017 4.79494C14.3017 3.2062 13.0138 1.91827 11.4251 1.91827V0.000488281C14.073 0.000488281 16.2195 2.14704 16.2195 4.79494C16.2195 5.94355 15.8156 6.99783 15.1421 7.82348C18.1365 8.48689 20.0551 11.2374 20.0551 14.3838C20.0551 18.0015 17.5185 21.096 13.7264 21.096L13.7264 21.0961H7.20596V21.096C3.41382 21.096 0.877289 17.8098 0.877289 14.192C0.877289 11.0478 2.79317 8.44377 5.78409 7.81586C5.11428 6.99135 4.71285 5.94002 4.71285 4.79494C4.71285 2.14704 6.85939 0.000488281 9.50729 0.000488281V1.91827ZM7.20596 19.1783H13.7264L13.7264 19.1782C16.2892 19.1782 18.1373 17.1209 18.1373 14.3838C18.1373 11.6466 16.2892 9.58931 13.7264 9.58931H11.4521L11.4251 9.58938V9.58931H9.50729V9.58938L9.4803 9.58931H7.20596C4.64314 9.58931 2.79507 11.4548 2.79507 14.192C2.79507 16.9292 4.64314 19.1782 7.20596 19.1782V19.1783Z" fill="#008299"/>
</svg>
