<svg width="48" height="42" viewBox="0 0 48 42" fill="none" xmlns="http://www.w3.org/2000/svg">
<path d="M35.641 1L47.188 21L35.641 41H12.547L1 21L12.547 1L35.641 1Z" stroke="#008299" stroke-width="0.5"/>
<path d="M34.212 4.22168L44.0571 21.2739L34.212 38.3261H14.5218L4.6767 21.2739L14.5218 4.22168L34.212 4.22168Z" fill="white" stroke="#008299"/>
<path d="M30.9429 13.082H17.1598C16.3764 13.082 15.6252 13.3932 15.0713 13.9471C14.5174 14.501 14.2062 15.2522 14.2062 16.0356V17.1874C14.2061 17.594 14.2899 17.9962 14.4524 18.3689V18.4279C14.5915 18.7439 14.7885 19.0311 15.0332 19.2746L21.0978 25.2998V31.7877C21.0975 31.955 21.1398 32.1197 21.2207 32.2661C21.3017 32.4125 21.4187 32.5359 21.5605 32.6246C21.7172 32.7217 21.898 32.7728 22.0823 32.7722C22.2364 32.7713 22.3882 32.7342 22.5254 32.6639L26.4634 30.6949C26.6258 30.6131 26.7623 30.4879 26.8579 30.3333C26.9534 30.1786 27.0043 30.0005 27.0049 29.8187V25.2998L33.0301 19.2746C33.2748 19.0311 33.4718 18.7439 33.6109 18.4279V18.3689C33.787 17.9991 33.8842 17.5968 33.8964 17.1874V16.0356C33.8964 15.2522 33.5853 14.501 33.0314 13.9471C32.4775 13.3932 31.7262 13.082 30.9429 13.082ZM25.3214 24.1972C25.2301 24.2891 25.1579 24.3982 25.1089 24.5182C25.0599 24.6381 25.0351 24.7666 25.0359 24.8962V29.2083L23.0668 30.1928V24.8962C23.0676 24.7666 23.0427 24.6381 22.9938 24.5182C22.9448 24.3982 22.8726 24.2891 22.7813 24.1972L17.5634 18.9891H30.5393L25.3214 24.1972ZM31.9274 17.0201H16.1753V16.0356C16.1753 15.7745 16.279 15.524 16.4636 15.3394C16.6482 15.1548 16.8987 15.0511 17.1598 15.0511H30.9429C31.204 15.0511 31.4544 15.1548 31.6391 15.3394C31.8237 15.524 31.9274 15.7745 31.9274 16.0356V17.0201Z" fill="#008299"/>
</svg>
