<svg width="17" height="22" viewBox="0 0 17 22" fill="none" xmlns="http://www.w3.org/2000/svg">
<path fill-rule="evenodd" clip-rule="evenodd" d="M6.32867 2.11005H10.5478C11.2119 2.11005 11.8401 2.26347 12.399 2.53682L3.25011 17.6524C2.54274 16.8979 2.10956 15.8832 2.10956 14.7674V6.32916C2.10956 3.99901 3.99852 2.11005 6.32867 2.11005ZM5.03149 18.7833C5.44017 18.9152 5.8761 18.9865 6.32867 18.9865H10.5478C12.8779 18.9865 14.7669 17.0975 14.7669 14.7674V6.32916C14.7669 5.43884 14.4911 4.61293 14.0203 3.93218L5.03149 18.7833ZM0 6.32916C0 2.83393 2.83344 0.000488281 6.32867 0.000488281H10.5478C14.043 0.000488281 16.8765 2.83393 16.8765 6.32916V14.7674C16.8765 18.2626 14.043 21.0961 10.5478 21.0961H6.32867C2.83344 21.0961 0 18.2626 0 14.7674V6.32916Z" fill="#008299"/>
</svg>
