<svg width="20" height="20" viewBox="0 0 20 20" fill="none" xmlns="http://www.w3.org/2000/svg">
<path d="M16.9429 0.0820312H3.15977C2.37644 0.0820313 1.6252 0.393206 1.07131 0.947101C0.517413 1.501 0.206238 2.25224 0.206238 3.03556V4.18744C0.206097 4.59399 0.289888 4.99618 0.452366 5.36885V5.42792C0.591457 5.74392 0.78847 6.03109 1.03323 6.2746L7.09781 12.2998V18.7877C7.09748 18.955 7.13979 19.1197 7.22075 19.2661C7.30171 19.4125 7.41865 19.5359 7.56053 19.6246C7.71721 19.7217 7.898 19.7728 8.08232 19.7722C8.23644 19.7713 8.38819 19.7342 8.52535 19.6639L12.4634 17.6949C12.6258 17.6131 12.7623 17.4879 12.8579 17.3333C12.9534 17.1786 13.0043 17.0005 13.0049 16.8187V12.2998L19.0301 6.2746C19.2748 6.03109 19.4718 5.74392 19.6109 5.42792V5.36885C19.787 4.9991 19.8842 4.59678 19.8964 4.18744V3.03556C19.8964 2.25224 19.5853 1.501 19.0314 0.947101C18.4775 0.393206 17.7262 0.0820313 16.9429 0.0820312ZM11.3214 11.1972C11.2301 11.2891 11.1579 11.3982 11.1089 11.5182C11.0599 11.6381 11.0351 11.7666 11.0359 11.8962V16.2083L9.06683 17.1928V11.8962C9.06758 11.7666 9.04275 11.6381 8.99375 11.5182C8.94476 11.3982 8.87257 11.2891 8.78132 11.1972L3.56342 5.98909H16.5393L11.3214 11.1972ZM17.9274 4.02007H2.17526V3.03556C2.17526 2.77445 2.27898 2.52404 2.46362 2.33941C2.64825 2.15478 2.89866 2.05105 3.15977 2.05105H16.9429C17.204 2.05105 17.4544 2.15478 17.6391 2.33941C17.8237 2.52404 17.9274 2.77445 17.9274 3.03556V4.02007Z" fill="#008299"/>
</svg>
