<svg width="176" height="64" viewBox="0 0 176 64" fill="none" xmlns="http://www.w3.org/2000/svg">
<path d="M43.2107 12.1838L55.0797 32.2554L43.6317 52.0839L20.3147 51.8409L8.44567 31.7693L19.8937 11.9407L43.2107 12.1838Z" stroke="#008299" stroke-width="0.5"/>
<path d="M162.681 15.0059L175.18 32.3271L162.68 49.6475L23.0003 49.6475L13.0003 32.327L23.0003 15.0065L162.681 15.0059Z" fill="white" stroke="#008299"/>
<path d="M39.0003 23.4883H25.0003C24.2047 23.4883 23.4416 23.8044 22.879 24.367C22.3164 24.9296 22.0003 25.6926 22.0003 26.4883V27.6583C22.0002 28.0712 22.0853 28.4798 22.2503 28.8583V28.9183C22.3916 29.2393 22.5917 29.5309 22.8403 29.7783L29.0003 35.8983V42.4883C29 42.6582 29.043 42.8255 29.1252 42.9742C29.2074 43.1229 29.3262 43.2482 29.4703 43.3383C29.6295 43.4369 29.8131 43.4889 30.0003 43.4883C30.1569 43.4873 30.311 43.4497 30.4503 43.3783L34.4503 41.3783C34.6152 41.2952 34.7539 41.168 34.851 41.0109C34.9481 40.8539 34.9998 40.6729 35.0003 40.4883V35.8983L41.1203 29.7783C41.3689 29.5309 41.5691 29.2393 41.7103 28.9183V28.8583C41.8891 28.4827 41.9879 28.0741 42.0003 27.6583V26.4883C42.0003 25.6926 41.6843 24.9296 41.1217 24.367C40.559 23.8044 39.796 23.4883 39.0003 23.4883ZM33.2903 34.7783C33.1977 34.8717 33.1243 34.9825 33.0746 35.1044C33.0248 35.2262 32.9996 35.3567 33.0003 35.4883V39.8683L31.0003 40.8683V35.4883C31.0011 35.3567 30.9759 35.2262 30.9261 35.1044C30.8763 34.9825 30.803 34.8717 30.7103 34.7783L25.4103 29.4883H38.5903L33.2903 34.7783ZM40.0003 27.4883H24.0003V26.4883C24.0003 26.2231 24.1057 25.9687 24.2932 25.7812C24.4808 25.5936 24.7351 25.4883 25.0003 25.4883H39.0003C39.2656 25.4883 39.5199 25.5936 39.7074 25.7812C39.895 25.9687 40.0003 26.2231 40.0003 26.4883V27.4883Z" fill="#008299"/>
</svg>
